<svg width="25" height="25" viewBox="0 0 25 25" fill="none" xmlns="http://www.w3.org/2000/svg">
<g clip-path="url(#clip0_776_38)">
<path d="M16.4824 16.9307L12.4824 12.9307L8.48242 16.9307" stroke="#9D9EB1" stroke-width="2" stroke-linecap="round" stroke-linejoin="round"/>
<path d="M12.4824 12.9307V21.9307" stroke="#9D9EB1" stroke-width="2" stroke-linecap="round" stroke-linejoin="round"/>
<path d="M20.8724 19.3211C21.8478 18.7894 22.6183 17.948 23.0623 16.9298C23.5064 15.9115 23.5987 14.7744 23.3246 13.6978C23.0506 12.6213 22.4259 11.6666 21.5491 10.9846C20.6723 10.3025 19.5933 9.93187 18.4824 9.93114H17.2224C16.9198 8.76038 16.3556 7.67347 15.5724 6.75213C14.7892 5.83079 13.8073 5.09899 12.7005 4.61174C11.5938 4.1245 10.391 3.8945 9.18256 3.93902C7.97413 3.98354 6.79151 4.30144 5.72362 4.8688C4.65573 5.43617 3.73035 6.23824 3.01707 7.21472C2.30378 8.1912 1.82113 9.31667 1.60542 10.5065C1.38971 11.6964 1.44655 12.9197 1.77166 14.0844C2.09676 15.2491 2.68169 16.325 3.48244 17.2311" stroke="#9D9EB1" stroke-width="2" stroke-linecap="round" stroke-linejoin="round"/>
<path d="M16.4824 16.9307L12.4824 12.9307L8.48242 16.9307" stroke="#9D9EB1" stroke-width="2" stroke-linecap="round" stroke-linejoin="round"/>
</g>
<defs>
<clipPath id="clip0_776_38">
<rect width="24" height="24" fill="white" transform="translate(0.482422 0.930664)"/>
</clipPath>
</defs>
</svg>